HIERARCHY
ROOT Hips
{
	OFFSET 0.0000 0.0000 0.0000
	CHANNELS 6 Xposition Yposition Zposition Zrotation Xrotation Yrotation
	JOINT Ab
	{
		OFFSET -0.0000 8.0846 -0.0000
		CHANNELS 3 Zrotation Xrotation Yrotation
		JOINT Chest
		{
			OFFSET -0.0000 25.0068 -0.0000
			CHANNELS 3 Zrotation Xrotation Yrotation
			JOINT Neck
			{
				OFFSET -0.0000 25.0068 0.0000
				CHANNELS 3 Zrotation Xrotation Yrotation
				JOINT Head
				{
					OFFSET -0.0000 10.7556 0.0000
					CHANNELS 3 Zrotation Xrotation Yrotation
					End Site
					{
						OFFSET -0.0000 16.6222 0.0000
					}
				}
			}
			JOINT LeftCollar
			{
				OFFSET -0.0000 25.0068 0.0000
				CHANNELS 3 Zrotation Xrotation Yrotation
				JOINT LeftShoulder
				{
					OFFSET 19.5556 -0.0000 0.0000
					CHANNELS 3 Zrotation Xrotation Yrotation
					JOINT LeftElbow
					{
						OFFSET 27.1828 0.0000 0.0000
						CHANNELS 3 Zrotation Xrotation Yrotation
						JOINT LeftWrist
						{
							OFFSET 23.3157 0.0000 0.0000
							CHANNELS 3 Zrotation Xrotation Yrotation
							End Site
							{
								OFFSET 0.0000 -14.6667 0.0000
							}
						}
					}
				}
			}
			JOINT RightCollar
			{
				OFFSET -0.0000 25.0068 0.0000
				CHANNELS 3 Zrotation Xrotation Yrotation
				JOINT RightShoulder
				{
					OFFSET -19.5556 0.0000 0.0000
					CHANNELS 3 Zrotation Xrotation Yrotation
					JOINT RightElbow
					{
						OFFSET -27.1828 0.0000 0.0000
						CHANNELS 3 Zrotation Xrotation Yrotation
						JOINT RightWrist
						{
							OFFSET -23.3157 0.0000 0.0000
							CHANNELS 3 Zrotation Xrotation Yrotation
							End Site
							{
								OFFSET -0.0000 -14.6667 0.0000
							}
						}
					}
				}
			}
		}
	}
	JOINT LeftHip
	{
		OFFSET 11.7333 0.0000 0.0000
		CHANNELS 3 Zrotation Xrotation Yrotation
		JOINT LeftKnee
		{
			OFFSET -0.0000 -40.8688 0.0000
			CHANNELS 3 Zrotation Xrotation Yrotation
			JOINT LeftAnkle
			{
				OFFSET -0.0000 -44.4337 0.0000
				CHANNELS 3 Zrotation Xrotation Yrotation
				End Site
				{
					OFFSET -0.0000 -4.8889 16.6222
				}
			}
		}
	}
	JOINT RightHip
	{
		OFFSET -11.7333 0.0000 0.0000
		CHANNELS 3 Zrotation Xrotation Yrotation
		JOINT RightKnee
		{
			OFFSET -0.0000 -40.8688 0.0000
			CHANNELS 3 Zrotation Xrotation Yrotation
			JOINT RightAnkle
			{
				OFFSET -0.0000 -44.4337 0.0000
				CHANNELS 3 Zrotation Xrotation Yrotation
				End Site
				{
					OFFSET -0.0000 -4.8889 16.6222
				}
			}
		}
	}
}
MOTION
Frames: 10
Frame Time: 0.010000
-2.3090 88.7012 187.2695 2.3077 0.5290 175.7363 0.9138 359.7204 358.7591 359.6246 11.7115 358.7959 3.2084 344.2260 1.9477 0.6585 5.8370 1.4710 338.4154 358.5478 7.6472 300.5689 30.2570 355.3327 16.5245 354.3601 322.5005 82.3333 1.0891 341.4943 22.2530 359.2057 355.8687 58.1450 45.2234 10.0237 337.5852 354.2158 28.6123 276.7557 353.0348 19.3123 1.7189 358.4689 356.5897 358.8535 10.8967 358.8476 358.8248 352.1705 21.6568 0.9781 352.1750 359.4123 358.6308 19.8102 8.3457 356.8547 345.1390 338.0213 
-2.3220 88.7030 187.2625 2.3101 0.5254 175.7553 0.8869 359.7427 358.7634 359.6437 11.7234 358.7981 3.2337 344.2053 1.9106 0.5903 5.8493 1.4352 338.4147 358.5226 7.6805 300.5859 30.4330 355.2914 16.6433 354.3168 322.5096 82.2617 1.0945 341.6208 22.2413 359.1863 355.8524 58.0822 45.2524 10.0927 337.5297 354.1834 28.6657 276.8266 352.9742 19.3156 1.7203 358.4584 356.5624 358.8374 10.9111 358.8337 358.4298 352.0833 21.6003 0.9711 352.1806 359.4132 358.6294 19.8057 8.3521 356.8581 345.1347 338.0100 
-2.3381 88.7054 187.2524 2.3074 0.5317 175.7651 0.8755 359.7796 358.7583 359.6382 11.7170 358.7954 3.2135 344.1874 1.8861 0.6065 5.8915 1.4112 338.4102 358.5495 7.6943 300.6077 30.5073 355.2714 16.5293 354.3732 322.6026 82.8127 0.9136 341.8876 22.2461 359.1897 355.8515 58.0048 45.2708 10.1396 337.5540 354.1753 28.6673 276.8413 352.8594 19.1972 1.7050 358.4603 356.5677 358.8367 10.9283 358.8493 358.8526 352.1563 21.6497 0.9522 352.2056 359.4287 358.6387 19.7843 8.3400 356.8617 345.1090 338.0082 
-2.3518 88.7079 187.2457 2.3112 0.5290 175.7671 0.8629 359.8088 358.7584 359.6394 11.7243 358.7942 3.2115 344.1737 1.8842 0.6324 5.8815 1.4088 338.4140 358.5352 7.6814 300.5718 30.3639 355.2947 16.5621 354.3308 322.4423 82.3158 1.1090 341.5908 22.2451 359.1730 355.8602 57.9491 45.3223 10.1836 337.5723 354.2001 28.7551 276.7444 352.9319 19.5171 1.7100 358.4491 356.5530 358.8130 10.9521 358.8277 358.8782 352.1298 21.6787 0.9455 352.2187 359.4731 358.6551 19.7634 8.2748 356.9540 345.0811 338.0311 
-2.3711 88.7102 187.2342 2.3076 0.5435 175.7729 0.7861 359.8048 358.7781 359.7898 11.8903 358.7997 3.0267 343.9466 1.8358 0.7069 5.9913 1.3766 338.4305 358.5121 7.7254 300.5046 30.4558 355.1761 16.6010 354.3197 322.4306 82.2765 1.1018 341.6087 22.0969 359.1624 355.7740 57.7661 45.3979 10.4799 337.6451 354.1918 28.8526 276.6200 353.0917 19.7915 1.6925 358.4632 356.5649 358.8118 10.9623 358.8246 358.8758 352.1227 21.6656 0.9238 352.2539 359.5078 358.6774 19.7394 8.2006 356.9285 345.0797 338.0792 
-2.3918 88.7113 187.2223 2.3051 0.5431 175.7852 0.7506 359.8176 358.7846 359.8217 11.9324 358.8035 3.0146 343.9053 1.8078 0.6746 5.9923 1.3419 338.4276 358.5320 7.7228 300.5100 30.5065 355.1426 16.5821 354.3573 322.4645 82.2989 1.0570 341.6324 22.0666 359.1928 355.7483 57.6903 45.3881 10.5854 337.6993 354.1830 28.9157 276.6178 353.1176 19.8617 1.6812 358.4599 356.5656 358.8013 10.9786 358.8047 358.9140 352.1169 21.6799 0.8977 352.2734 359.5530 358.7022 19.7194 8.1850 356.8803 345.0968 338.0594 
-2.4177 88.7125 187.2212 2.3032 0.5170 175.7960 0.7495 359.8369 358.7838 359.7985 11.9224 358.8061 3.0053 343.9105 1.7702 0.6816 5.9813 1.3209 338.4406 358.5190 7.7209 300.4913 30.5617 355.1487 16.6705 354.3006 322.3592 82.2542 1.2113 341.8479 22.0607 359.1781 355.7417 57.6353 45.4371 10.6550 337.6309 354.1477 28.9949 276.6426 353.1802 19.8558 1.6677 358.4150 356.5621 358.7959 11.0112 358.7870 358.9120 352.0866 21.6965 0.8726 352.2526 359.5862 358.7253 19.7159 8.1310 356.8640 345.1042 338.0627 
-2.4413 88.7138 187.2075 2.3022 0.5224 175.8062 0.7211 359.8665 358.7915 359.8068 11.9364 358.8114 2.9783 343.9091 1.7424 0.7060 5.9713 1.2835 338.4413 358.5319 7.7036 300.4643 30.4706 355.1584 16.5849 354.3286 322.3317 82.2907 1.2299 341.7682 22.0506 359.1635 355.7366 57.5511 45.4927 10.7238 337.6208 354.1328 29.0620 276.6735 353.2024 19.8297 1.6581 358.4185 356.5397 358.7774 11.0256 358.7887 358.4763 351.9901 21.6351 0.8495 352.2842 359.6177 358.7433 19.6837 8.0718 356.9389 345.0817 338.1060 
-2.4689 88.7142 187.1931 2.3001 0.5217 175.8171 0.6957 359.8922 358.8031 359.8093 11.9454 358.8235 2.9749 343.9177 1.7109 0.6990 5.9470 1.2745 338.4384 358.5183 7.7275 300.4688 30.6797 355.1293 16.6973 354.2661 322.3917 82.3678 1.1546 341.9550 22.0398 359.1588 355.7094 57.4419 45.5691 10.8391 337.5933 354.1386 29.0047 276.9116 352.6517 19.7367 1.6457 358.4217 356.5116 358.7577 11.0331 358.7678 358.5137 351.9777 21.6574 0.8201 352.3113 359.6614 358.7657 19.6628 8.0309 356.9760 345.0705 338.1337 
-2.5008 88.7136 187.1853 2.2978 0.4725 175.8830 0.7030 359.8731 358.7737 359.7794 11.9446 358.7971 2.9764 343.9334 1.6855 0.6876 5.9294 1.2402 338.4422 358.5258 7.7053 300.4692 30.7357 355.1339 16.6871 354.2679 322.4208 82.4275 1.1208 341.9762 22.0581 359.1384 355.6802 57.3496 45.5172 10.8590 337.6122 354.1202 29.2012 276.9901 352.5972 19.7146 1.6297 358.3374 356.4476 358.7411 11.0885 358.7559 358.9008 352.0217 21.7422 0.7832 352.3029 359.6542 358.7962 19.6265 8.1716 356.9037 345.1026 337.9451 
